<svg width="16" height="29" viewBox="0 0 16 29" fill="none" xmlns="http://www.w3.org/2000/svg">
<path d="M11.6227 23.222L11.2274 24.1405L11.2275 24.1405L11.6227 23.222ZM14.7223 25.3254C15.2353 25.1211 15.4856 24.5395 15.2812 24.0264L11.9508 15.6653C11.7464 15.1522 11.1648 14.9019 10.6517 15.1063C10.1386 15.3107 9.88838 15.8923 10.0927 16.4054L13.0531 23.8375L5.62105 26.7979C5.10797 27.0022 4.85772 27.5839 5.06209 28.0969C5.26646 28.61 5.84807 28.8603 6.36115 28.6559L14.7223 25.3254ZM3.91123 1.41154C4.13853 0.908197 3.91476 0.315895 3.41142 0.0885956C2.90807 -0.138704 2.31577 0.085073 2.08847 0.588415L3.91123 1.41154ZM11.2275 24.1405L13.957 25.315L14.7475 23.4779L12.0179 22.3034L11.2275 24.1405ZM2.08847 0.588415C-1.98706 9.61345 2.13118 20.2266 11.2274 24.1405L12.0179 22.3034C3.94912 18.8315 0.296048 9.41718 3.91123 1.41154L2.08847 0.588415Z" fill="#222222"/>
</svg>
