<svg width="25" height="19" viewBox="0 0 25 19" fill="none" xmlns="http://www.w3.org/2000/svg">
<path d="M7.11592 1.03279C6.65795 0.724114 6.03646 0.845147 5.72778 1.30312L0.697683 8.76624C0.389012 9.22421 0.510044 9.8457 0.968019 10.1544C1.42599 10.463 2.04748 10.342 2.35615 9.88404L6.82735 3.25016L13.4612 7.72136C13.9192 8.03003 14.5407 7.909 14.8494 7.45102C15.158 6.99305 15.037 6.37156 14.579 6.06289L7.11592 1.03279ZM7.56486 7.03717L6.5833 7.22832L6.5833 7.22832L7.56486 7.03717ZM24.2346 18.5694C24.7715 18.4401 25.102 17.9 24.9727 17.3631C24.8434 16.8261 24.3033 16.4957 23.7664 16.625L24.2346 18.5694ZM5.57546 2.05318L6.5833 7.22832L8.54642 6.84601L7.53858 1.67087L5.57546 2.05318ZM6.5833 7.22832C8.16407 15.3454 16.1948 20.5052 24.2346 18.5694L23.7664 16.625C16.834 18.2941 9.90945 13.845 8.54642 6.84601L6.5833 7.22832Z" fill="#222222"/>
</svg>
