<svg width="16" height="24" viewBox="0 0 16 24" fill="none" xmlns="http://www.w3.org/2000/svg">
<path d="M15.2423 10.3816L4.38202 0.677025C4.1439 0.462499 3.86061 0.292224 3.54848 0.176025C3.23635 0.0598248 2.90156 0 2.56343 0C2.22529 0 1.8905 0.0598248 1.57837 0.176025C1.26624 0.292224 0.98295 0.462499 0.744835 0.677025C0.267772 1.10586 0 1.68596 0 2.29063C0 2.8953 0.267772 3.47541 0.744835 3.90424L9.81218 12.0066L0.744835 20.109C0.267772 20.5378 0 21.1179 0 21.7226C0 22.3273 0.267772 22.9074 0.744835 23.3362C0.984172 23.5483 1.26802 23.7162 1.58009 23.8301C1.89216 23.944 2.22633 24.0017 2.56343 24C2.90052 24.0017 3.23469 23.944 3.54676 23.8301C3.85884 23.7162 4.14268 23.5483 4.38202 23.3362L15.2423 13.6317C15.4824 13.4189 15.673 13.1658 15.803 12.8868C15.933 12.6079 16 12.3088 16 12.0066C16 11.7045 15.933 11.4053 15.803 11.1264C15.673 10.8475 15.4824 10.5943 15.2423 10.3816Z" fill="white"/>
</svg>