<svg width="682" height="581" viewBox="0 0 682 581" fill="none" xmlns="http://www.w3.org/2000/svg">
<path fill-rule="evenodd" clip-rule="evenodd" d="M622.81 119.768C650.217 160.425 659.299 209.5 661.506 258.942C662.712 285.946 669.841 312.512 673.287 339.322C680.671 396.764 652.253 456.86 617.166 500.722C573.259 555.609 497.606 581.587 427.337 579.958C363.678 578.482 319.385 521.663 262.776 492.505C210.734 465.7 144.328 463.162 109.39 416.192C72.8933 367.128 9.3467 291.447 11.3992 230.332C13.5978 164.866 69.49 94.2264 121.539 54.4569C174.362 14.0953 249.759 61.0806 316.082 56.5453C368.736 52.9448 416.677 20.086 468.367 30.7405C528.026 43.0373 588.763 69.2601 622.81 119.768Z" fill="url(#paint0_linear_0_1)"/>
<path opacity="0.5" fill-rule="evenodd" clip-rule="evenodd" d="M493.636 17.874C550.154 45.4802 578.157 106.487 608.866 161.301C642.797 221.867 690.766 282.846 680.442 351.314C669.956 420.856 617.37 481.148 555.566 514.793C499.574 545.273 432.54 518.06 368.737 520.998C310.082 523.698 251.172 554.627 197.213 531.294C140.848 506.921 47.6124 472.944 18.6391 418.879C-12.3969 360.965 0.563681 271.772 25.7231 211.289C51.2571 149.904 140.337 153.065 195.616 116.038C239.501 86.6428 264.573 34.2063 314.796 17.6636C372.761 -1.42929 438.67 -8.97426 493.636 17.874Z" fill="url(#paint1_linear_0_1)"/>
<defs>
<linearGradient id="paint0_linear_0_1" x1="631.083" y1="133.426" x2="107.904" y2="435.483" gradientUnits="userSpaceOnUse">
<stop stop-color="#FF794F"/>
<stop offset="1" stop-color="#FF8A00" stop-opacity="0.05"/>
</linearGradient>
<linearGradient id="paint1_linear_0_1" x1="507.688" y1="25.5997" x2="205.631" y2="548.779" gradientUnits="userSpaceOnUse">
<stop stop-color="#FFC7A8"/>
<stop offset="1" stop-color="#FFC692" stop-opacity="0.05"/>
</linearGradient>
</defs>
</svg>
