<svg width="279" height="169" viewBox="0 0 279 169" fill="none" xmlns="http://www.w3.org/2000/svg">
<path fill-rule="evenodd" clip-rule="evenodd" d="M52.003 17.4276L21.2304 90.8083L5.23042 125.501L1.45269 135.606C-5.07862 153.077 11.5154 170.338 29.2304 164.501L62.2057 145.549C68.7174 141.807 76.7319 141.827 83.2247 145.602L115.73 164.501L116.841 164.81C133.36 169.41 148.394 153.852 143.23 137.501L123.73 90.8083L97.2304 29.0006L92.7062 17.7361C85.3759 -0.514694 59.6091 -0.710007 52.003 17.4276ZM58.5019 67.3053C56.658 69.7638 55.0391 72.3833 53.6647 75.132L53.5653 75.3308C52.0156 78.4302 50.8861 81.7223 50.2065 85.1201L49.7705 87.3004C49.7438 87.4336 49.7284 87.5688 49.7242 87.7047L49.5156 94.5897C49.098 108.372 60.8169 119.421 74.5505 118.195L76.7304 118.001L81.2304 117.001L85.9804 114.251L86.1066 114.165C90.9658 110.873 94.2258 105.698 95.0964 99.894L95.2304 99.0006C95.5619 95.6857 95.3983 92.3399 94.7449 89.0732L94.7304 89.0006L93.7573 86.0811C91.442 79.1353 87.445 72.8699 82.1221 67.8427C81.6069 67.3561 80.8161 67.3113 80.2492 67.7365L77.8201 69.5583C77.4694 69.8213 77.3309 70.2819 77.4783 70.6947L79.7304 77.0006L72.2304 66.5006L71.0293 64.8189C70.1648 63.6088 69.2019 62.4721 68.1503 61.4205L66.7935 60.0636C66.4786 59.7488 65.9717 59.7378 65.6434 60.0387L62.3541 63.0539C60.9413 64.3489 59.6518 65.7721 58.5019 67.3053Z" fill="url(#paint0_linear_2235_805)"/>
<path d="M148.73 24.9338C148.73 11.9178 160.697 2.08939 173.519 4.32815V4.32815C177.804 5.07639 181.73 7.3746 184.448 10.7715L186.896 13.8321C187.78 14.9371 188.484 16.175 188.98 17.5V17.5V17.5C189.479 18.8307 189.858 20.2033 190.113 21.6015L190.73 25L191.73 29L192.48 31.75L193.23 34.5L193.287 34.6927C195.573 42.5331 198.837 50.0549 203.001 57.081V57.081C204.151 59.022 205.495 60.8412 207.013 62.5107L211.359 67.2919C213.595 69.7513 216.172 71.8775 219.011 73.6056L222.993 76.0293C225.143 77.3379 227.449 78.3708 229.856 79.1036L237.73 81.5L238.105 24.5587C238.176 13.7798 246.485 4.84835 257.23 4V4V4C268.049 2.41682 277.76 10.7847 277.794 21.7183L278.174 146.493C278.205 156.785 270.019 165.222 259.73 165.5V165.5L257.862 165.448C248.373 165.185 240.272 158.517 238.188 149.256V149.256C237.552 146.429 237.262 143.536 237.325 140.639L237.39 137.67C237.591 128.425 231.563 120.195 222.688 117.597V117.597C219.054 116.534 215.502 115.21 212.059 113.636L205.267 110.531C201.599 108.854 198.206 106.602 195.233 103.877V103.877C194.237 102.964 193.342 101.939 192.573 100.828L189.23 96V139V148.424C189.23 150.766 188.609 153.066 187.429 155.089L186.832 156.112C186.1 157.367 185.235 158.54 184.253 159.612V159.612C181.652 162.449 178.148 164.298 174.337 164.842L171.77 165.209C159.61 166.946 148.73 157.51 148.73 145.226V24.9338Z" fill="#FF7921"/>
<path d="M148.73 23.5045C148.73 22.172 148.874 20.8435 149.159 19.5418V19.5418C150.994 11.154 157.985 4.87793 166.521 3.95507L168.396 3.75239C169.942 3.58522 171.505 3.66755 173.026 3.99626L175.354 4.49975C183.492 6.25922 189.361 13.3698 189.546 21.6933L189.73 30L183.23 57.5L173.23 84.5L165.73 104.5L157.23 124L148.73 141V81.5V51.5V23.5045Z" fill="url(#paint1_linear_2235_805)"/>
<defs>
<linearGradient id="paint0_linear_2235_805" x1="21.2305" y1="24.5" x2="140.23" y2="176.5" gradientUnits="userSpaceOnUse">
<stop stop-color="#FC502E"/>
<stop offset="1" stop-color="#F92F38"/>
</linearGradient>
<linearGradient id="paint1_linear_2235_805" x1="150.23" y1="3" x2="195.73" y2="158" gradientUnits="userSpaceOnUse">
<stop stop-color="#FA3F34"/>
<stop offset="1" stop-color="#F93337"/>
</linearGradient>
</defs>
</svg>
