<svg width="22" height="18" viewBox="0 0 22 18" fill="none" xmlns="http://www.w3.org/2000/svg">
<path d="M12.2692 15.2597L12.2692 5.38577C12.2708 3.95787 12.8061 2.58891 13.7579 1.57922C14.7097 0.569539 16.0001 0.00159125 17.3462 -2.43874e-05C17.5706 -2.4407e-05 17.7858 0.0945476 17.9445 0.262886C18.1032 0.431225 18.1923 0.659541 18.1923 0.897608C18.1923 1.13568 18.1032 1.36399 17.9445 1.53233C17.7858 1.70067 17.5706 1.79524 17.3462 1.79524C16.4488 1.79631 15.5885 2.17494 14.954 2.84806C14.3195 3.52119 13.9625 4.43383 13.9615 5.38577L13.9615 6.2834L20.3077 6.2834C20.7564 6.28395 21.1865 6.47327 21.5038 6.80982C21.821 7.14638 21.9995 7.6027 22 8.07867L22 15.2597C21.9995 15.7357 21.821 16.192 21.5038 16.5286C21.1865 16.8651 20.7564 17.0544 20.3077 17.055L13.9615 17.055C13.5129 17.0544 13.0827 16.8651 12.7655 16.5286C12.4482 16.192 12.2697 15.7357 12.2692 15.2597ZM1.69231 17.055L8.03846 17.055C8.48713 17.0544 8.91728 16.8651 9.23454 16.5286C9.5518 16.192 9.73026 15.7357 9.73077 15.2597L9.73077 8.07867C9.73026 7.6027 9.5518 7.14639 9.23454 6.80983C8.91728 6.47327 8.48713 6.28395 8.03846 6.2834L1.69231 6.28341L1.69231 5.38577C1.69332 4.43383 2.05023 3.52119 2.68475 2.84806C3.31927 2.17494 4.17958 1.79631 5.07692 1.79524C5.30134 1.79524 5.51656 1.70067 5.67524 1.53233C5.83393 1.36399 5.92308 1.13568 5.92308 0.897609C5.92308 0.659542 5.83393 0.431226 5.67524 0.262887C5.51656 0.0945487 5.30134 -2.3331e-05 5.07692 -2.33113e-05C3.73091 0.00159233 2.44045 0.56954 1.48868 1.57922C0.5369 2.58891 0.00152283 3.95787 8.90484e-07 5.38577L1.75091e-06 15.2597C0.000514869 15.7357 0.178976 16.192 0.496233 16.5286C0.813492 16.8651 1.24364 17.0545 1.69231 17.055Z" fill="white"/>
</svg>